<svg width="50" height="50" viewBox="0 0 50 50" fill="none" xmlns="http://www.w3.org/2000/svg">
    <path d="M25 50C38.8071 50 50 38.8071 50 25C50 11.1929 38.8071 0 25 0C11.1929 0 0 11.1929 0 25C0 38.8071 11.1929 50 25 50Z" fill="#E5FDF3"/>
    <path d="M24.9999 42.7083C34.78 42.7083 42.7083 34.78 42.7083 25C42.7083 15.2199 34.78 7.29163 24.9999 7.29163C15.2199 7.29163 7.2916 15.2199 7.2916 25C7.2916 34.78 15.2199 42.7083 24.9999 42.7083Z" fill="#AEF2D7"/>
    <path d="M24.9999 17.4479L32.552 21.875L24.9999 26.302L17.4478 21.875L24.9999 17.4479Z" stroke="#2D7156" stroke-width="1.5" stroke-linecap="round" stroke-linejoin="round"/>
    <path d="M22.1353 25L17.4478 28.125L24.9999 32.5521L32.552 28.125L27.7835 25" stroke="#2D7156" stroke-width="1.5" stroke-linecap="round" stroke-linejoin="round"/>
  </svg>