<svg width="50" height="50" viewBox="0 0 50 50" fill="none" xmlns="http://www.w3.org/2000/svg">
  <g clip-path="url(#clip0_883_149)">
    <path d="M25 50C38.8071 50 50 38.8071 50 25C50 11.1929 38.8071 0 25 0C11.1929 0 0 11.1929 0 25C0 38.8071 11.1929 50 25 50Z" fill="#F4FAFE"/>
    <path d="M25 42.7084C34.78 42.7084 42.7083 34.7801 42.7083 25C42.7083 15.22 34.78 7.29169 25 7.29169C15.2199 7.29169 7.29166 15.22 7.29166 25C7.29166 34.7801 15.2199 42.7084 25 42.7084Z" fill="#E9F4FF"/>
    <path d="M24.2187 19.7917C24.2187 21.0861 23.1694 22.1354 21.875 22.1354C20.5806 22.1354 19.5312 21.0861 19.5312 19.7917C19.5312 18.4973 20.5806 17.4479 21.875 17.4479C23.1694 17.4479 24.2187 18.4973 24.2187 19.7917Z" stroke="#2168F2" stroke-width="1.5" stroke-linecap="round" stroke-linejoin="round"/>
    <path d="M27.3438 22.1354C28.6381 22.1354 29.9479 21.0861 29.9479 19.7917C29.9479 18.4973 28.6381 17.4479 27.3438 17.4479" stroke="#2168F2" stroke-width="1.5" stroke-linecap="round" stroke-linejoin="round"/>
    <path d="M21.875 22.6562C18.3333 22.6562 17.4479 24.4792 17.4479 27.3437H19.5312V30.4687C19.5312 31.6194 20.4639 32.5521 21.6146 32.5521H22.1354C23.286 32.5521 24.2187 31.6194 24.2187 30.4687V27.3437H26.3021C26.3021 24.4792 25.4167 22.6562 21.875 22.6562Z" stroke="#2168F2" stroke-width="1.5" stroke-linecap="round" stroke-linejoin="round"/>
    <path d="M27.3438 22.1354C30.8854 22.1354 32.0312 24.4792 32.0312 27.3438H29.9479V30.4688C29.9479 31.6194 29.0152 32.5521 27.8646 32.5521H27.3438" stroke="#2168F2" stroke-width="1.5" stroke-linecap="round" stroke-linejoin="round"/>
  </g>
  <defs>
    <clipPath id="clip0_883_149">
      <rect width="50" height="50" fill="white"/>
    </clipPath>
  </defs>
</svg>