<svg width="23" height="23" viewBox="0 0 23 23" fill="none" xmlns="http://www.w3.org/2000/svg">
  <path d="M13.5707 11.4695L22.5026 2.53718C23.0838 1.95616 23.0838 1.01671 22.5026 0.435763C21.9216 -0.145254 20.9822 -0.145254 20.4012 0.435763L11.4691 9.36797L2.53733 0.435763C1.95604 -0.145254 1.01696 -0.145254 0.435961 0.435763C-0.14532 1.01678 -0.14532 1.95616 0.435961 2.53718L9.36767 11.4695L0.436031 20.4017C-0.145251 20.9827 -0.145251 21.9221 0.436031 22.5031C0.573848 22.6413 0.737616 22.7509 0.917926 22.8256C1.09824 22.9004 1.29153 22.9387 1.48671 22.9385C1.86708 22.9385 2.24759 22.7929 2.5374 22.5031L11.4691 13.5709L20.4012 22.5031C20.5391 22.6413 20.7028 22.7509 20.8831 22.8256C21.0634 22.9003 21.2567 22.9387 21.4519 22.9385C21.8323 22.9385 22.2128 22.7929 22.5026 22.5031C23.0838 21.9221 23.0838 20.9827 22.5026 20.4017L13.5707 11.4695Z" fill="black"/>
</svg>