<svg width="13" height="7" viewBox="0 0 13 7" fill="none" xmlns="http://www.w3.org/2000/svg">
  <path d="M6.50003 6.78642C6.42242 6.78649 6.34556 6.77189 6.27387 6.74346C6.20217 6.71502 6.13705 6.67331 6.08226 6.62072L0.173173 0.965398C-0.0577243 0.744416 -0.0577243 0.386576 0.173173 0.165736C0.40407 -0.055104 0.777967 -0.0552454 1.00872 0.165736L6.50003 5.42122L11.9913 0.165736C12.2222 -0.0552454 12.5961 -0.0552454 12.8269 0.165736C13.0576 0.386718 13.0578 0.744558 12.8269 0.965398L6.9178 6.62072C6.863 6.67331 6.79788 6.71502 6.72619 6.74346C6.65449 6.77189 6.57763 6.78649 6.50003 6.78642Z" fill="black"/>
</svg>