<svg width="50" height="48" viewBox="0 0 50 48" fill="none" xmlns="http://www.w3.org/2000/svg">
  <path d="M25 48C38.8071 48 50 37.2548 50 24C50 10.7452 38.8071 0 25 0C11.1929 0 0 10.7452 0 24C0 37.2548 11.1929 48 25 48Z" fill="#FEF6F4"/>
  <path d="M25 41C34.78 41 42.7083 33.3888 42.7083 24C42.7083 14.6112 34.78 7 25 7C15.2199 7 7.29166 14.6112 7.29166 24C7.29166 33.3888 15.2199 41 25 41Z" fill="#FFE9E9"/>
  <path d="M28.9062 20.75L32.5521 24L28.9062 27.25M21.0937 20.75L17.4479 24L21.0937 27.25M26.3021 17.75L23.6979 30.25" stroke="#D73E3E" stroke-width="1.5" stroke-linecap="round" stroke-linejoin="round"/>
</svg>