<svg width="64" height="63" viewBox="0 0 64 63" fill="none" xmlns="http://www.w3.org/2000/svg">
  <g clip-path="url(#clip0_552_341)">
    <path d="M29.151 62.5C14.95 62.2562 5.26044 54.2074 1.24927 41.3941C-1.05212 34.0424 -0.0540459 26.9093 3.26014 20.1667C6.60732 13.3567 11.6001 7.91944 18.3977 4.43655C21.2371 2.98196 24.2808 1.91973 27.2702 0.783131C28.4359 0.340107 29.6739 0.449007 30.9003 0.887998C32.4581 1.43607 34.1041 1.68485 35.7529 1.62142C39.387 1.49784 42.6336 2.6701 45.6427 4.53674C47.6707 5.79434 49.86 6.81155 51.6761 8.40409C57.3191 13.3533 61.2428 19.4302 63.4473 26.6349C64.2837 29.3461 63.9905 32.1172 63.7299 34.8582C63.5797 36.4379 62.9666 37.9991 62.721 39.514C62.5288 40.6918 61.5744 41.5469 61.6497 42.3326C61.7634 43.5201 61.2814 44.2708 60.8064 45.0986C56.3405 52.8853 49.3438 57.3025 41.1003 60.0488C38.1807 61.0214 35.2203 61.8364 32.1785 62.2959C31.0039 62.4734 29.7999 62.4603 29.151 62.5ZM11.5924 24.3531C11.7186 24.2684 11.885 24.2205 11.918 24.1253C13.1596 20.5566 15.6428 17.9569 18.3481 15.471C19.6916 14.2366 20.5825 12.5764 21.7593 10.7762C18.0052 11.9938 11.7565 20.5656 11.5924 24.3531ZM52.1392 37.7071L44.7449 47.2884C49.4733 43.2397 51.7674 40.2173 52.1392 37.7071ZM10.6166 12.0357C13.2765 9.74477 16.3529 7.97929 18.7722 5.38487C15.7017 7.15794 12.7954 9.13799 10.6166 12.0357ZM45.1992 36.5973C44.1148 37.9715 42.5609 39.0526 42.3776 41.0064C43.6422 39.7509 44.7982 38.4262 45.1992 36.5973ZM19.6402 24.1473C20.804 22.381 22.2399 20.7946 22.8546 18.7317C21.1546 20.1679 20.4546 22.2045 19.6402 24.1473ZM53.7936 52.3071L54.0598 52.5284C55.2478 51.6682 56.2553 50.58 57.0244 49.3262C56.4537 49.7476 55.9976 50.2818 55.4976 50.7703C54.9506 51.3045 54.3634 51.7961 53.7936 52.3071ZM9.18914 13.3824C8.55477 13.854 8.11003 14.2783 7.85587 14.8815C7.78637 15.0464 7.69043 15.2348 7.88502 15.3521C8.00492 15.3836 8.13131 15.3794 8.24888 15.34C8.26618 14.5798 9.48542 14.4922 9.18914 13.3824Z" fill="#EDF0FF"/>
    <path fill-rule="evenodd" clip-rule="evenodd" d="M24.963 23C23.3266 23 22 24.3266 22 25.963V34.8519C22 36.4882 23.3266 37.8148 24.963 37.8148H36.0267C36.7716 37.8148 37.4891 38.0953 38.0364 38.6006L40.7568 41.1117C41.2313 41.5497 42 41.2132 42 40.5674V25.963C42 24.3266 40.6734 23 39.037 23H24.963ZM31.2637 31.0414C31.2291 31.2557 31.2187 31.5253 31.2326 31.8503H32.6326C32.6257 31.5945 32.6602 31.3905 32.7363 31.2384C32.8193 31.0794 32.961 30.9342 33.1615 30.8029L33.4207 30.6266C33.7526 30.3984 34.0119 30.191 34.1985 30.0044C34.3921 29.8108 34.5269 29.6138 34.603 29.4133C34.6859 29.2127 34.7274 28.9846 34.7274 28.7288C34.7274 28.3486 34.6168 28.0098 34.3956 27.7125C34.1743 27.4153 33.8736 27.1801 33.4933 27.0073C33.1131 26.8276 32.681 26.7377 32.197 26.7377C31.7684 26.7377 31.3674 26.8103 30.9941 26.9555C30.6276 27.1007 30.3096 27.3046 30.04 27.5673C29.7704 27.8231 29.5699 28.1308 29.4385 28.4903L30.797 28.9984C30.9007 28.7357 31.0736 28.5249 31.3156 28.3659C31.5644 28.2068 31.8376 28.1273 32.1348 28.1273C32.3215 28.1273 32.4839 28.1584 32.6222 28.2207C32.7674 28.2829 32.8815 28.3659 32.9644 28.4696C33.0474 28.5733 33.0889 28.6942 33.0889 28.8325C33.0889 28.9431 33.0474 29.0572 32.9644 29.1747C32.8815 29.2923 32.7501 29.4167 32.5704 29.5481L32.0104 29.9629C31.7961 30.1219 31.6267 30.2879 31.5022 30.4607C31.3847 30.6266 31.3052 30.8201 31.2637 31.0414ZM31.2533 33.9451C31.4469 34.1318 31.675 34.2251 31.9378 34.2251C32.2005 34.2251 32.4252 34.1318 32.6119 33.9451C32.8054 33.7516 32.9022 33.5234 32.9022 33.2607C32.9022 32.9979 32.8054 32.7733 32.6119 32.5866C32.4252 32.393 32.2005 32.2962 31.9378 32.2962C31.675 32.2962 31.4469 32.393 31.2533 32.5866C31.0667 32.7733 30.9733 32.9979 30.9733 33.2607C30.9733 33.5234 31.0667 33.7516 31.2533 33.9451Z" fill="#4DC3BA"/>
  </g>
  <defs>
    <clipPath id="clip0_552_341">
      <rect width="64" height="62" fill="white" transform="translate(0 0.5)"/>
    </clipPath>
  </defs>
</svg>