<svg width="14" height="15" viewBox="0 0 14 15" fill="none" xmlns="http://www.w3.org/2000/svg">
  <g clip-path="url(#clip0_567_59)">
    <path fill-rule="evenodd" clip-rule="evenodd" d="M10.5 0.209473H3.5C1.57518 0.209473 0 1.78395 0 3.70947V10.7095C0 12.6343 1.57518 14.2095 3.5 14.2095H10.5C12.4248 14.2095 14 12.6343 14 10.7095V3.70947C14 1.78395 12.4248 0.209473 10.5 0.209473ZM6.99998 10.1262C5.38893 10.1262 4.08325 8.82004 4.08325 7.20969C4.08325 5.59864 5.38893 4.29297 6.99998 4.29297C8.61033 4.29297 9.9167 5.59864 9.9167 7.20969C9.9167 8.82004 8.61033 10.1262 6.99998 10.1262ZM9.91675 3.41797C9.91675 3.90114 10.308 4.29297 10.7917 4.29297C11.2754 4.29297 11.6667 3.90114 11.6667 3.41797C11.6667 2.93479 11.2754 2.54297 10.7917 2.54297C10.308 2.54297 9.91675 2.93479 9.91675 3.41797Z" fill="#0B0A24"/>
  </g>
  <defs>
    <clipPath id="clip0_567_59">
      <rect width="14" height="14" fill="white" transform="translate(0 0.209473)"/>
    </clipPath>
  </defs>
</svg>