<svg width="64" height="63" viewBox="0 0 64 63" fill="none" xmlns="http://www.w3.org/2000/svg">
  <g clip-path="url(#clip0_552_302)">
    <path d="M29.151 62.5C14.95 62.2562 5.26044 54.2074 1.24927 41.3941C-1.05212 34.0424 -0.0540459 26.9093 3.26014 20.1667C6.60732 13.3567 11.6001 7.91944 18.3977 4.43655C21.2371 2.98196 24.2808 1.91973 27.2702 0.783131C28.4359 0.340107 29.6739 0.449007 30.9003 0.887998C32.4581 1.43607 34.1041 1.68485 35.7529 1.62142C39.387 1.49784 42.6336 2.6701 45.6427 4.53674C47.6707 5.79434 49.86 6.81155 51.6761 8.40409C57.3191 13.3533 61.2428 19.4302 63.4473 26.6349C64.2837 29.3461 63.9905 32.1172 63.7299 34.8582C63.5797 36.4379 62.9666 37.9991 62.721 39.514C62.5288 40.6918 61.5744 41.5469 61.6497 42.3326C61.7634 43.5201 61.2814 44.2708 60.8064 45.0986C56.3405 52.8853 49.3438 57.3025 41.1003 60.0488C38.1807 61.0214 35.2203 61.8364 32.1785 62.2959C31.0039 62.4734 29.7999 62.4603 29.151 62.5ZM11.5924 24.3531C11.7186 24.2684 11.885 24.2205 11.918 24.1253C13.1596 20.5566 15.6428 17.9569 18.3481 15.471C19.6916 14.2366 20.5825 12.5764 21.7593 10.7762C18.0052 11.9938 11.7565 20.5656 11.5924 24.3531ZM52.1392 37.7071L44.7449 47.2884C49.4733 43.2397 51.7674 40.2173 52.1392 37.7071ZM10.6166 12.0357C13.2765 9.74477 16.3529 7.97929 18.7722 5.38487C15.7017 7.15794 12.7954 9.13799 10.6166 12.0357ZM45.1992 36.5973C44.1148 37.9715 42.5609 39.0526 42.3776 41.0064C43.6422 39.7509 44.7982 38.4262 45.1992 36.5973ZM19.6402 24.1473C20.804 22.381 22.2399 20.7946 22.8546 18.7317C21.1546 20.1679 20.4546 22.2045 19.6402 24.1473ZM53.7936 52.3071L54.0598 52.5284C55.2478 51.6682 56.2553 50.58 57.0244 49.3262C56.4537 49.7476 55.9976 50.2818 55.4976 50.7703C54.9506 51.3045 54.3634 51.7961 53.7936 52.3071ZM9.18914 13.3824C8.55477 13.854 8.11003 14.2783 7.85587 14.8815C7.78637 15.0464 7.69043 15.2348 7.88502 15.3521C8.00492 15.3836 8.13131 15.3794 8.24888 15.34C8.26618 14.5798 9.48542 14.4922 9.18914 13.3824Z" fill="#EDF0FF"/>
    <path d="M31.9863 19.5C30.3361 19.5079 29 20.848 29 22.5C29 23.435 29.4316 24.1535 29.8926 24.8575C30.3186 25.5075 29.7837 26.3597 29.0117 26.2637C26.7327 25.9817 24.4258 25.545 24.4258 25.545L24.4238 25.5469C24.2846 25.5162 24.1425 25.5005 24 25.5C23.4696 25.5 22.9609 25.7107 22.5858 26.0858C22.2107 26.4609 22 26.9696 22 27.5V32.3262C22 33.2362 23.0065 33.8016 23.7715 33.3086C24.5045 32.8356 25.2672 32.4207 26.2832 32.5137C27.5382 32.6277 28.6379 33.5631 28.9199 34.7911C29.3679 36.7561 27.888 38.5 26 38.5C25.13 38.5 24.4471 38.1252 23.7891 37.7012C23.0161 37.2032 22 37.751 22 38.67V41.0664C22 42.6084 22.895 43.5 24 43.5H32H40C41.105 43.5 42 42.605 42 41.5V27.5C42 26.9696 41.7893 26.4609 41.4142 26.0858C41.0391 25.7107 40.5304 25.5 40 25.5C39.8581 25.5007 39.7167 25.5164 39.5781 25.5469L39.5742 25.545C39.5742 25.545 37.2673 25.9817 34.9883 26.2637C34.2143 26.3597 33.6833 25.5046 34.1113 24.8516C34.6183 24.0776 35.0883 23.2831 34.9863 22.2051C34.8683 20.9541 33.933 19.8601 32.709 19.5801C32.4634 19.5239 32.2221 19.4989 31.9863 19.5Z" fill="#4DC3BA"/>
  </g>
  <defs>
    <clipPath id="clip0_552_302">
      <rect width="64" height="62" fill="white" transform="translate(0 0.5)"/>
    </clipPath>
  </defs>
</svg>