<svg width="20" height="20" viewBox="0 0 20 20" fill="none" xmlns="http://www.w3.org/2000/svg">
  <path d="M17 8.99997H5.41402L8.70702 5.70697C8.79986 5.61413 8.87351 5.5039 8.92376 5.3826C8.97401 5.26129 8.99987 5.13127 8.99987 4.99997C8.99987 4.86867 8.97401 4.73865 8.92376 4.61735C8.87351 4.49604 8.79986 4.38582 8.70702 4.29297C8.61417 4.20013 8.50395 4.12648 8.38264 4.07623C8.26134 4.02598 8.13132 4.00012 8.00002 4.00012C7.86872 4.00012 7.7387 4.02598 7.61739 4.07623C7.49609 4.12648 7.38586 4.20013 7.29302 4.29297L2.29302 9.29297C2.20007 9.38576 2.12633 9.49596 2.07602 9.61728C2.02571 9.73859 1.99982 9.86864 1.99982 9.99997C1.99982 10.1313 2.02571 10.2613 2.07602 10.3827C2.12633 10.504 2.20007 10.6142 2.29302 10.707L7.29302 15.707C7.38567 15.8002 7.49583 15.8741 7.61717 15.9246C7.7385 15.975 7.86861 16.001 8.00002 16.001C8.13143 16.001 8.26154 15.975 8.38287 15.9246C8.5042 15.8741 8.61436 15.8002 8.70702 15.707C8.79996 15.6142 8.8737 15.504 8.92401 15.3827C8.97432 15.2613 9.00022 15.1313 9.00022 15C9.00022 14.8686 8.97432 14.7386 8.92401 14.6173C8.8737 14.496 8.79996 14.3858 8.70702 14.293L5.41402 11H17C17.2652 11 17.5196 10.8946 17.7071 10.7071C17.8947 10.5195 18 10.2652 18 9.99997C18 9.73475 17.8947 9.4804 17.7071 9.29286C17.5196 9.10533 17.2652 8.99997 17 8.99997Z" fill="black"/>
</svg>