<svg width="20" height="20" viewBox="0 0 20 20" fill="none" xmlns="http://www.w3.org/2000/svg">
  <path d="M3.00001 8.99997H14.586L11.293 5.70697C11.2002 5.61413 11.1265 5.5039 11.0763 5.3826C11.026 5.26129 11.0002 5.13127 11.0002 4.99997C11.0002 4.86867 11.026 4.73865 11.0763 4.61735C11.1265 4.49604 11.2002 4.38582 11.293 4.29297C11.3859 4.20013 11.4961 4.12648 11.6174 4.07623C11.7387 4.02598 11.8687 4.00012 12 4.00012C12.1313 4.00012 12.2613 4.02598 12.3826 4.07623C12.5039 4.12648 12.6142 4.20013 12.707 4.29297L17.707 9.29297C17.8 9.38576 17.8737 9.49596 17.924 9.61728C17.9743 9.73859 18.0002 9.86864 18.0002 9.99997C18.0002 10.1313 17.9743 10.2613 17.924 10.3827C17.8737 10.504 17.8 10.6142 17.707 10.707L12.707 15.707C12.6144 15.8002 12.5042 15.8741 12.3829 15.9246C12.2615 15.975 12.1314 16.001 12 16.001C11.8686 16.001 11.7385 15.975 11.6172 15.9246C11.4958 15.8741 11.3857 15.8002 11.293 15.707C11.2001 15.6142 11.1263 15.504 11.076 15.3827C11.0257 15.2613 10.9998 15.1313 10.9998 15C10.9998 14.8686 11.0257 14.7386 11.076 14.6173C11.1263 14.496 11.2001 14.3858 11.293 14.293L14.586 11H3.00001C2.7348 11 2.48044 10.8946 2.2929 10.7071C2.10537 10.5195 2.00001 10.2652 2.00001 9.99997C2.00001 9.73475 2.10537 9.4804 2.2929 9.29286C2.48044 9.10533 2.7348 8.99997 3.00001 8.99997Z" fill="black"/>
</svg>