<svg width="30" height="24" viewBox="0 0 30 24" fill="none" xmlns="http://www.w3.org/2000/svg">
  <path d="M1.64286 13.6861H27.9286C28.3643 13.6861 28.7822 13.513 29.0902 13.2049C29.3983 12.8968 29.5714 12.4789 29.5714 12.0432C29.5714 11.6075 29.3983 11.1896 29.0902 10.8815C28.7822 10.5734 28.3643 10.4004 27.9286 10.4004H1.64286C1.20714 10.4004 0.789277 10.5734 0.481182 10.8815C0.173086 11.1896 0 11.6075 0 12.0432C0 12.4789 0.173086 12.8968 0.481182 13.2049C0.789277 13.513 1.20714 13.6861 1.64286 13.6861ZM27.9286 0.543213H1.64286C1.20714 0.543213 0.789277 0.716299 0.481182 1.02439C0.173086 1.33249 0 1.75036 0 2.18607C0 2.62178 0.173086 3.03965 0.481182 3.34775C0.789277 3.65584 1.20714 3.82893 1.64286 3.82893H27.9286C28.3643 3.82893 28.7822 3.65584 29.0902 3.34775C29.3983 3.03965 29.5714 2.62178 29.5714 2.18607C29.5714 1.75036 29.3983 1.33249 29.0902 1.02439C28.7822 0.716299 28.3643 0.543213 27.9286 0.543213ZM1.64286 23.5432H27.9286C28.3643 23.5432 28.7822 23.3701 29.0902 23.062C29.3983 22.7539 29.5714 22.3361 29.5714 21.9004C29.5714 21.4646 29.3983 21.0468 29.0902 20.7387C28.7822 20.4306 28.3643 20.2575 27.9286 20.2575H1.64286C1.20714 20.2575 0.789277 20.4306 0.481182 20.7387C0.173086 21.0468 0 21.4646 0 21.9004C0 22.3361 0.173086 22.7539 0.481182 23.062C0.789277 23.3701 1.20714 23.5432 1.64286 23.5432Z" fill="black"/>
</svg>