<svg width="16" height="14" viewBox="0 0 16 14" fill="none" xmlns="http://www.w3.org/2000/svg">
  <g clip-path="url(#clip0_567_57)">
    <path d="M15.9168 2.26467C15.818 2.15898 15.6605 2.13274 15.5328 2.20067C15.3779 2.27159 15.2173 2.3294 15.0528 2.37347C15.2968 2.06934 15.4814 1.72195 15.5968 1.34948C15.6283 1.2204 15.5768 1.08526 15.4674 1.00992C15.3579 0.934587 15.2133 0.934727 15.104 1.01028C14.594 1.29234 14.0498 1.50744 13.4848 1.65028C12.8779 1.04644 12.0561 0.70808 11.2 0.709477C10.5169 0.724496 9.85176 0.930698 9.27999 1.30468C8.06399 1.98947 7.85279 3.57027 7.94239 4.54947C5.68806 4.35936 3.60835 3.25942 2.18239 1.50308C2.12405 1.41335 2.02679 1.35641 1.91999 1.34948C1.81328 1.35668 1.71722 1.41671 1.66399 1.50948C1.00468 2.65117 1.05945 4.06999 1.80479 5.15747C1.70879 5.09347 1.60639 5.01667 1.50399 4.93347C1.40852 4.83883 1.26407 4.81394 1.14244 4.87118C1.0208 4.92842 0.947907 5.05559 0.959985 5.18947C0.979397 6.38044 1.57603 7.48779 2.55999 8.15907L2.31039 8.08867C2.1917 8.05174 2.06236 8.08687 1.97867 8.17879C1.89499 8.2707 1.87211 8.40276 1.91999 8.51747C2.42228 9.65199 3.40616 10.502 4.60159 10.8343C3.51179 11.4639 2.24926 11.7285 0.998385 11.5895C0.847166 11.5708 0.703742 11.6613 0.655559 11.8059C0.607375 11.9504 0.667797 12.1089 0.799985 12.1847C2.30486 13.0625 4.01785 13.52 5.75999 13.5095C8.22048 13.4894 10.5529 12.4095 12.16 10.5463C13.761 8.83039 14.603 6.54181 14.496 4.19747C15.0663 3.76169 15.5577 3.23134 15.9488 2.62947C16.0156 2.51319 16.0029 2.36755 15.9168 2.26467Z" fill="#0B0A24"/>
  </g>
  <defs>
    <clipPath id="clip0_567_57">
      <rect width="16" height="13" fill="white" transform="translate(0 0.709473)"/>
    </clipPath>
  </defs>
</svg>