<svg width="50" height="48" viewBox="0 0 50 48" fill="none" xmlns="http://www.w3.org/2000/svg">
  <path d="M25 48C38.8071 48 50 37.2548 50 24C50 10.7452 38.8071 0 25 0C11.1929 0 0 10.7452 0 24C0 37.2548 11.1929 48 25 48Z" fill="#F7F4FE"/>
  <path d="M25 41C34.78 41 42.7083 33.3888 42.7083 24C42.7083 14.6112 34.78 7 25 7C15.2199 7 7.29166 14.6112 7.29166 24C7.29166 33.3888 15.2199 41 25 41Z" fill="#EFE9FF"/>
  <path d="M28.2438 21.3569C27.8738 21.57 27.7539 22.0307 27.9759 22.3859C28.1979 22.7411 28.6778 22.8562 29.0478 22.6431L28.2438 21.3569ZM32.5521 19.75H33.3333C33.3333 19.4798 33.182 19.2305 32.937 19.0974C32.6921 18.9642 32.3914 18.9679 32.1501 19.1069L32.5521 19.75ZM32.5521 28.25L32.1501 28.8931C32.3914 29.0321 32.6921 29.0358 32.937 28.9026C33.182 28.7695 33.3333 28.5202 33.3333 28.25H32.5521ZM29.0478 25.3569C28.6778 25.1438 28.1979 25.2589 27.9759 25.6141C27.7539 25.9693 27.8738 26.43 28.2438 26.6431L29.0478 25.3569ZM29.0478 22.6431L32.9541 20.3931L32.1501 19.1069L28.2438 21.3569L29.0478 22.6431ZM31.7708 19.75V28.25H33.3333V19.75H31.7708ZM32.9541 27.6069L29.0478 25.3569L28.2438 26.6431L32.1501 28.8931L32.9541 27.6069ZM19.5312 19.5H26.3021V18H19.5312V19.5ZM27.6042 20.75V27.25H29.1667V20.75H27.6042ZM26.3021 28.5H19.5312V30H26.3021V28.5ZM18.2292 27.25V20.75H16.6667V27.25H18.2292ZM19.5312 28.5C18.8121 28.5 18.2292 27.9404 18.2292 27.25H16.6667C16.6667 28.7688 17.9492 30 19.5312 30V28.5ZM27.6042 27.25C27.6042 27.9404 27.0212 28.5 26.3021 28.5V30C27.8842 30 29.1667 28.7688 29.1667 27.25H27.6042ZM26.3021 19.5C27.0212 19.5 27.6042 20.0596 27.6042 20.75H29.1667C29.1667 19.2312 27.8842 18 26.3021 18V19.5ZM19.5312 18C17.9492 18 16.6667 19.2312 16.6667 20.75H18.2292C18.2292 20.0596 18.8121 19.5 19.5312 19.5V18Z" fill="#6421F2"/>
</svg>