<svg width="50" height="50" viewBox="0 0 50 50" fill="none" xmlns="http://www.w3.org/2000/svg">
  <path d="M25 50C38.8071 50 50 38.8071 50 25C50 11.1929 38.8071 0 25 0C11.1929 0 0 11.1929 0 25C0 38.8071 11.1929 50 25 50Z" fill="#FEF4F6"/>
  <path d="M24.9999 42.7083C34.78 42.7083 42.7083 34.78 42.7083 25C42.7083 15.2199 34.78 7.29163 24.9999 7.29163C15.2199 7.29163 7.2916 15.2199 7.2916 25C7.2916 34.78 15.2199 42.7083 24.9999 42.7083Z" fill="#FFE9F1"/>
  <path fill-rule="evenodd" clip-rule="evenodd" d="M21.6107 22.3547C21.5815 22.3244 21.5517 22.2946 21.5215 22.2654C20.1115 20.9047 17.8653 20.9447 16.5046 22.3547L16.4336 22.4283C15.0092 23.9043 15.0092 26.2429 16.4336 27.7189C16.4619 27.7482 16.4908 27.7772 16.5203 27.8056C17.8911 29.1284 20.0746 29.0896 21.3974 27.7189L24.0924 24.9263L21.6107 22.3547ZM28.6024 27.7189C29.9252 29.0896 32.1088 29.1284 33.4796 27.8056C33.509 27.7772 33.5379 27.7482 33.5663 27.7189C34.9906 26.2429 34.9906 23.9043 33.5663 22.4283L33.4952 22.3547C32.1345 20.9447 29.8883 20.9047 28.4783 22.2654C28.4481 22.2946 28.4183 22.3244 28.3891 22.3547L25.9075 24.9263L28.6024 27.7189ZM24.9999 23.8041L25.9597 22.8095H26.0305L25.9952 22.7728L27.3585 21.3601C27.3995 21.3175 27.4413 21.2758 27.4838 21.2347C29.463 19.3247 32.6158 19.3808 34.5258 21.3601L34.597 21.4338C36.5568 23.4646 36.5568 26.6826 34.597 28.7134C34.5568 28.7551 34.5158 28.7961 34.4742 28.8363C32.5342 30.7084 29.4439 30.6534 27.5718 28.7134L25.9952 27.0797L26.0305 27.043H25.9597L24.9999 26.0483L24.0401 27.043H23.9693L24.0047 27.0797L22.428 28.7134C20.556 30.6534 17.4656 30.7084 15.5257 28.8363C15.4841 28.7961 15.443 28.7551 15.4028 28.7134C13.443 26.6826 13.443 23.4646 15.4028 21.4338L15.474 21.3601C17.384 19.3808 20.5369 19.3247 22.5161 21.2347C22.5586 21.2758 22.6003 21.3175 22.6414 21.3601L24.0047 22.7728L23.9693 22.8095H24.0401L24.9999 23.8041Z" fill="#F83062"/>
</svg>